<?xml version="1.0" encoding="utf-8"?><svg xmlns="http://www.w3.org/2000/svg" xmlns:xlink="http://www.w3.org/1999/xlink"><symbol viewBox="0 0 24 24" id="icon-add" xmlns="http://www.w3.org/2000/svg"><path d="M11 10a1 1 0 112 0v5a1 1 0 01-2 0v-5z"/><path d="M9.5 13.5a1 1 0 110-2h5a1 1 0 010 2h-5z"/><path fill-rule="evenodd" clip-rule="evenodd" d="M20 16c0 2.828 0 4.243-.879 5.121C18.243 22 16.828 22 14 22h-4c-2.828 0-4.243 0-5.121-.879C4 20.243 4 18.828 4 16V8c0-2.828 0-4.243.879-5.121C5.757 2 7.172 2 10 2h4c.169 0 .253 0 .334.007a2 2 0 011.132.469c.062.052.122.112.241.231l3.586 3.586c.12.12.179.179.231.24a2 2 0 01.47 1.133C20 7.747 20 7.83 20 8v8zM13 4v1c0 1.886 0 2.828.586 3.414C14.172 9 15.114 9 17 9h1v7c0 1.886 0 2.828-.586 3.414C16.828 20 15.886 20 14 20h-4c-1.886 0-2.828 0-3.414-.586C6 18.828 6 17.886 6 16V8c0-1.886 0-2.828.586-3.414C7.172 4 8.114 4 10 4h3zm2 1c0 .943 0 1.414.293 1.707C15.586 7 16.057 7 17 7h.2L15 4.8V5z"/></symbol><symbol viewBox="0 0 30 30" id="icon-basket" xmlns="http://www.w3.org/2000/svg"><path d="M11.036 4.362a1.42 1.42 0 011.277-.79h5.374c.54 0 1.036.303 1.277.79l.322.638h4.285C24.361 5 25 5.638 25 6.43c0 .79-.638 1.428-1.429 1.428H6.43a1.427 1.427 0 110-2.857h4.285l.322-.638zM6.429 9.286H23.57v14.286a2.86 2.86 0 01-2.857 2.857H9.286a2.86 2.86 0 01-2.857-2.857V9.286zm4.285 2.857a.716.716 0 00-.714.714v10c0 .393.321.715.714.715a.716.716 0 00.715-.715v-10a.716.716 0 00-.715-.714zm4.286 0a.716.716 0 00-.714.714v10c0 .393.321.715.714.715a.716.716 0 00.714-.715v-10a.716.716 0 00-.714-.714zm4.286 0a.716.716 0 00-.715.714v10c0 .393.322.715.715.715a.716.716 0 00.714-.715v-10a.716.716 0 00-.714-.714z"/></symbol><symbol viewBox="0 0 22 22" id="icon-basket-min" xmlns="http://www.w3.org/2000/svg"><path d="M7.21.76A1.37 1.37 0 018.437 0h5.174c.52 0 .996.292 1.229.76l.309.615h4.125a1.374 1.374 0 110 2.75h-16.5c-.76 0-1.375-.614-1.375-1.375 0-.76.614-1.375 1.375-1.375H6.9l.31-.614zM2.774 5.5h16.5v13.75a2.753 2.753 0 01-2.75 2.75h-11a2.753 2.753 0 01-2.75-2.75V5.5zM6.9 8.25a.69.69 0 00-.688.688v9.624c0 .379.31.688.688.688a.69.69 0 00.687-.688V8.938A.69.69 0 006.9 8.25zm4.125 0a.69.69 0 00-.688.688v9.624c0 .379.31.688.688.688a.69.69 0 00.687-.688V8.938a.69.69 0 00-.687-.687zm4.125 0a.69.69 0 00-.688.688v9.624c0 .379.31.688.688.688a.69.69 0 00.687-.688V8.938a.69.69 0 00-.687-.687z"/></symbol><symbol viewBox="0 0 30 30" id="icon-card" xmlns="http://www.w3.org/2000/svg"><path d="M4 8.889a2.444 2.444 0 012.444-2.445h17.112A2.445 2.445 0 0126 8.89v12.22a2.447 2.447 0 01-2.444 2.444H6.444A2.445 2.445 0 014 21.111V8.889zm6.111 6.11a1.22 1.22 0 00-1.222-1.221A1.22 1.22 0 007.667 15a1.22 1.22 0 001.222 1.222A1.22 1.22 0 0010.11 15zm0-3.666a1.22 1.22 0 00-1.222-1.222 1.22 1.22 0 00-1.222 1.222 1.22 1.22 0 001.222 1.222 1.22 1.22 0 001.222-1.222zm0 7.334a1.22 1.22 0 00-1.222-1.223 1.22 1.22 0 00-1.222 1.223 1.22 1.22 0 001.222 1.222 1.22 1.22 0 001.222-1.222zm2.445-8.25a.914.914 0 00-.917.916c0 .508.409.917.917.917h8.555a.915.915 0 00.917-.917.914.914 0 00-.917-.916h-8.555zm0 3.666a.915.915 0 00-.917.917c0 .508.409.917.917.917h8.555a.915.915 0 00.917-.917.915.915 0 00-.917-.917h-8.555zm0 3.667a.915.915 0 00-.917.917c0 .507.409.916.917.916h8.555a.914.914 0 00.917-.916.915.915 0 00-.917-.917h-8.555z"/></symbol><symbol viewBox="0 0 22 22" id="icon-card-min" xmlns="http://www.w3.org/2000/svg"><g clip-path="url(#eclip0_498_15)"><path d="M0 4.886a2.444 2.444 0 012.444-2.444h17.112A2.445 2.445 0 0122 4.886V17.11a2.447 2.447 0 01-2.444 2.444H2.444A2.445 2.445 0 010 17.109V4.886zm6.111 6.111A1.22 1.22 0 004.89 9.775a1.22 1.22 0 00-1.222 1.222A1.22 1.22 0 004.89 12.22a1.22 1.22 0 001.222-1.223zm0-3.666A1.22 1.22 0 004.89 6.109 1.22 1.22 0 003.667 7.33a1.22 1.22 0 001.222 1.222A1.22 1.22 0 006.11 7.331zm0 7.333a1.22 1.22 0 00-1.222-1.222 1.22 1.22 0 00-1.222 1.222 1.22 1.22 0 001.222 1.222 1.22 1.22 0 001.222-1.222zm2.445-8.25a.914.914 0 00-.917.917c0 .508.409.916.917.916h8.555a.914.914 0 00.917-.916.914.914 0 00-.917-.917H8.556zm0 3.667a.914.914 0 00-.917.916c0 .508.409.917.917.917h8.555a.915.915 0 00.917-.917.914.914 0 00-.917-.916H8.556zm0 3.666a.914.914 0 00-.917.917c0 .508.409.917.917.917h8.555a.915.915 0 00.917-.917.915.915 0 00-.917-.917H8.556z"/></g><defs><clipPath id="eclip0_498_15"><path d="M0 0h22v22H0z"/></clipPath></defs></symbol><symbol viewBox="0 0 30 30" id="icon-edit" xmlns="http://www.w3.org/2000/svg"><path d="M21.49 13.593l-.442.442-.884.884-8.017 8.017c-.258.258-.578.45-.93.551l-5.014 1.474a.927.927 0 01-.926-.238.936.936 0 01-.239-.927l1.474-5.01a2.18 2.18 0 01.552-.93l8.016-8.017.884-.884.442-.441 1.326 1.325 2.428 2.429 1.326 1.325h.004zM8.753 18.818l-.364.363a.324.324 0 00-.078.133l-.99 3.363 3.364-.989a.324.324 0 00.133-.078l.364-.364H9.379a.628.628 0 01-.626-.625v-1.803zM22.725 5.733l1.541 1.541a2.502 2.502 0 010 3.539l-.567.567-.884.884-.442.442-1.325-1.326-2.429-2.428-1.33-1.326.443-.442.884-.884.567-.567a2.502 2.502 0 013.538 0h.004z"/></symbol><symbol viewBox="0 0 22 22" id="icon-edit-min" xmlns="http://www.w3.org/2000/svg"><path d="M17.425 9.608l-.437.437-.875.875-7.937 7.937a2.152 2.152 0 01-.921.546l-4.963 1.46a.918.918 0 01-.918-.237.926.926 0 01-.236-.917l1.46-4.96c.1-.348.29-.666.545-.921L11.08 5.89l.875-.875.437-.437 1.313 1.312 2.404 2.404 1.313 1.313h.003zM4.815 14.78l-.36.36a.321.321 0 00-.077.132l-.98 3.33 3.33-.98a.321.321 0 00.132-.078l.36-.36H5.435a.621.621 0 01-.62-.62V14.78zM18.65 1.826l1.525 1.525a2.477 2.477 0 010 3.504l-.561.561-.875.875-.438.438-1.312-1.312-2.404-2.405L13.267 3.7l.438-.438.875-.875.561-.561a2.477 2.477 0 013.504 0h.004z"/></symbol><symbol viewBox="0 0 30 30" id="icon-exit" xmlns="http://www.w3.org/2000/svg"><g clip-path="url(#hclip0_122_43)"><path d="M16.222 6.445a1.21 1.21 0 00-.47-.963 1.232 1.232 0 00-1.05-.221L7.831 6.979a1.83 1.83 0 00-1.387 1.776v13.579H5.222A1.22 1.22 0 004 23.556a1.22 1.22 0 001.222 1.222h11V6.445zM13.778 15c0 .676-.409 1.222-.917 1.222s-.917-.546-.917-1.222c0-.676.41-1.222.917-1.222.508 0 .917.546.917 1.222zm3.666-4.889h3.667v14.667h3.667A1.22 1.22 0 0026 23.556a1.22 1.22 0 00-1.222-1.223h-1.222V10.112a2.447 2.447 0 00-2.445-2.444h-3.667v2.444z"/></g><defs><clipPath id="hclip0_122_43"><path transform="translate(4 5.222)" d="M0 0h22v19.556H0z"/></clipPath></defs></symbol><symbol viewBox="0 0 30 30" id="icon-hospital" xmlns="http://www.w3.org/2000/svg"><path d="M24.167 6.444H5.833A1.834 1.834 0 004 8.278v.61h22v-.61a1.834 1.834 0 00-1.833-1.834zM4 21.722c0 1.012.82 1.834 1.833 1.834h18.334A1.834 1.834 0 0026 21.722v-11.61H4v11.61zm14.056-9.166h4.888c.337 0 .612.275.612.61a.613.613 0 01-.612.612h-4.888a.613.613 0 01-.612-.611c0-.336.275-.611.612-.611zm0 2.444h4.888c.337 0 .612.275.612.611a.613.613 0 01-.612.611h-4.888a.613.613 0 01-.612-.61c0-.337.275-.612.612-.612zm0 2.445h4.888a.611.611 0 110 1.222h-4.888a.611.611 0 110-1.223zm-7.334-4.89a2.444 2.444 0 110 4.89 2.444 2.444 0 010-4.89zm-2.444 6.112h4.889c1.012 0 1.833.82 1.833 1.833a.611.611 0 01-.611.611H7.056a.612.612 0 01-.612-.611c0-1.012.821-1.833 1.834-1.833z"/></symbol><symbol viewBox="0 0 24 24" id="icon-info" xmlns="http://www.w3.org/2000/svg"><path d="M12 10a1 1 0 011 1v6a1 1 0 11-2 0v-6a1 1 0 011-1z"/><path fill-rule="evenodd" clip-rule="evenodd" d="M11.998 2c5.523-.001 10 4.475 10.002 9.998.001 5.523-4.475 10-9.998 10.002-5.523.001-10-4.475-10.002-9.998-.001-5.523 4.475-10 9.998-10.002zM12 20a8 8 0 100-16 8 8 0 000 16z"/><circle cx="12" cy="7.75" r="1.25"/></symbol><symbol viewBox="0 0 30 30" id="icon-list" xmlns="http://www.w3.org/2000/svg"><path d="M10.536 5.984c.42.38.455 1.033.073 1.456l-3.092 3.44a.884.884 0 01-.74.3c-.283.047-.556-.064-.756-.3L4.302 9.16c-.403-.365-.403-1.018 0-1.42a1.031 1.031 0 011.458 0l.95.948L9.08 6.06a1.031 1.031 0 011.457-.076zm0 6.876c.42.378.455 1.032.073 1.457l-3.092 3.437a.884.884 0 01-.74.301c-.283.047-.556-.064-.756-.3l-1.719-1.72c-.403-.364-.403-1.018 0-1.422.403-.4 1.056-.4 1.458 0l.95.95 2.369-2.63a1.032 1.032 0 011.457-.073zm3.089-4.391c0-.76.614-1.375 1.375-1.375h9.625a1.374 1.374 0 110 2.75H15c-.76 0-1.375-.615-1.375-1.375zm0 6.875c0-.76.614-1.375 1.375-1.375h9.625c.76 0 1.375.614 1.375 1.375 0 .76-.614 1.375-1.375 1.375H15c-.76 0-1.375-.615-1.375-1.375zm-2.75 6.875c0-.76.614-1.375 1.375-1.375h12.375c.76 0 1.375.614 1.375 1.375 0 .76-.614 1.375-1.375 1.375H12.25c-.76 0-1.375-.615-1.375-1.375zm-6.875 0a2.063 2.063 0 114.125 0 2.063 2.063 0 01-4.125 0z"/></symbol><symbol viewBox="0 0 30 30" id="icon-map" xmlns="http://www.w3.org/2000/svg"><path d="M13.979 25.506c-2.249-2.766-7.25-9.47-7.25-13.235a8.271 8.271 0 1116.542 0c0 3.766-5.04 10.469-7.25 13.235a1.302 1.302 0 01-2.042 0zm1.02-10.478a2.76 2.76 0 002.758-2.757A2.76 2.76 0 0015 9.514a2.76 2.76 0 00-2.757 2.757A2.76 2.76 0 0015 15.028z"/></symbol><symbol viewBox="0 0 24 24" id="icon-patients" xmlns="http://www.w3.org/2000/svg"><path fill-rule="evenodd" clip-rule="evenodd" d="M3 5.5c0-.935 0-1.402.201-1.75a1.5 1.5 0 01.549-.549C4.098 3 4.565 3 5.5 3h3c.935 0 1.402 0 1.75.201a1.5 1.5 0 01.549.549C11 4.098 11 4.565 11 5.5s0 1.402-.201 1.75a1.5 1.5 0 01-.549.549C9.902 8 9.435 8 8.5 8h-3c-.935 0-1.402 0-1.75-.201a1.5 1.5 0 01-.549-.549C3 6.902 3 6.435 3 5.5zm6-.1c0-.189 0-.283-.059-.341C8.883 5 8.79 5 8.6 5H5.4c-.189 0-.283 0-.341.059C5 5.117 5 5.21 5 5.4v.2c0 .189 0 .283.059.341C5.117 6 5.21 6 5.4 6h3.2c.189 0 .283 0 .341-.059C9 5.883 9 5.79 9 5.6v-.2zm3 .1c0-.935 0-1.402.201-1.75a1.5 1.5 0 01.549-.549C13.098 3 13.565 3 14.5 3h3c.935 0 1.402 0 1.75.201a1.5 1.5 0 01.549.549C20 4.098 20 4.565 20 5.5s0 1.402-.201 1.75a1.5 1.5 0 01-.549.549C18.902 8 18.435 8 17.5 8h-3c-.935 0-1.402 0-1.75-.201a1.5 1.5 0 01-.549-.549C12 6.902 12 6.435 12 5.5zm6-.1c0-.189 0-.283-.059-.341C17.883 5 17.79 5 17.6 5h-3.2c-.189 0-.283 0-.341.059C14 5.117 14 5.21 14 5.4v.2c0 .189 0 .283.059.341.058.059.152.059.341.059h3.2c.189 0 .283 0 .341-.059C18 5.883 18 5.79 18 5.6v-.2zM3 11.5c0-.935 0-1.402.201-1.75a1.5 1.5 0 01.549-.549C4.098 9 4.565 9 5.5 9h3c.935 0 1.402 0 1.75.201a1.5 1.5 0 01.549.549c.201.348.201.815.201 1.75s0 1.402-.201 1.75a1.5 1.5 0 01-.549.549C9.902 14 9.435 14 8.5 14h-3c-.935 0-1.402 0-1.75-.201a1.5 1.5 0 01-.549-.549C3 12.902 3 12.435 3 11.5zm6-.1c0-.189 0-.283-.059-.341C8.883 11 8.79 11 8.6 11H5.4c-.189 0-.283 0-.341.059C5 11.117 5 11.21 5 11.4v.2c0 .189 0 .283.059.341.058.059.152.059.341.059h3.2c.189 0 .283 0 .341-.059C9 11.883 9 11.79 9 11.6v-.2zm-6 6.1c0-.935 0-1.402.201-1.75a1.5 1.5 0 01.549-.549C4.098 15 4.565 15 5.5 15h3c.935 0 1.402 0 1.75.201a1.5 1.5 0 01.549.549c.201.348.201.815.201 1.75s0 1.402-.201 1.75a1.5 1.5 0 01-.549.549C9.902 20 9.435 20 8.5 20h-3c-.935 0-1.402 0-1.75-.201a1.5 1.5 0 01-.549-.549C3 18.902 3 18.435 3 17.5zm6-.1c0-.189 0-.283-.059-.341C8.883 17 8.79 17 8.6 17H5.4c-.189 0-.283 0-.341.059C5 17.117 5 17.21 5 17.4v.2c0 .189 0 .283.059.341.058.059.152.059.341.059h3.2c.189 0 .283 0 .341-.059C9 17.883 9 17.79 9 17.6v-.2zm3-5.9c0-.935 0-1.402.201-1.75a1.5 1.5 0 01.549-.549C13.098 9 13.565 9 14.5 9h3c.935 0 1.402 0 1.75.201a1.5 1.5 0 01.549.549c.201.348.201.815.201 1.75s0 1.402-.201 1.75a1.5 1.5 0 01-.549.549c-.348.201-.815.201-1.75.201h-3c-.935 0-1.402 0-1.75-.201a1.5 1.5 0 01-.549-.549C12 12.902 12 12.435 12 11.5zm6-.1c0-.189 0-.283-.059-.341C17.883 11 17.79 11 17.6 11h-3.2c-.189 0-.283 0-.341.059-.059.058-.059.152-.059.341v.2c0 .189 0 .283.059.341.058.059.152.059.341.059h3.2c.189 0 .283 0 .341-.059.059-.058.059-.152.059-.341v-.2zm-6 6.1c0-.935 0-1.402.201-1.75a1.5 1.5 0 01.549-.549C13.098 15 13.565 15 14.5 15h3c.935 0 1.402 0 1.75.201a1.5 1.5 0 01.549.549c.201.348.201.815.201 1.75s0 1.402-.201 1.75a1.5 1.5 0 01-.549.549c-.348.201-.815.201-1.75.201h-3c-.935 0-1.402 0-1.75-.201a1.5 1.5 0 01-.549-.549C12 18.902 12 18.435 12 17.5zm6-.1c0-.189 0-.283-.059-.341C17.883 17 17.79 17 17.6 17h-3.2c-.189 0-.283 0-.341.059-.059.058-.059.152-.059.341v.2c0 .189 0 .283.059.341.058.059.152.059.341.059h3.2c.189 0 .283 0 .341-.059.059-.058.059-.152.059-.341v-.2z"/></symbol><symbol viewBox="0 0 24 24" id="icon-schedule" xmlns="http://www.w3.org/2000/svg"><path fill-rule="evenodd" clip-rule="evenodd" d="M5.333 4C4.106 4 3 5.028 3 6.29v2.35C3 9.902 4.106 11 5.333 11h3.445C10.005 11 11 9.902 11 8.64V6.29C11 5.028 10.005 4 8.778 4H5.333zM6 6c-.471 0-.707 0-.854.146C5 6.293 5 6.53 5 7v1c0 .471 0 .707.146.854C5.293 9 5.53 9 6 9h2c.471 0 .707 0 .854-.146C9 8.707 9 8.47 9 8V7c0-.471 0-.707-.146-.854C8.707 6 8.47 6 8 6H6zm9.333-2C14.106 4 13 5.028 13 6.29v2.35C13 9.902 14.106 11 15.333 11h3.445C20.005 11 21 9.902 21 8.64V6.29C21 5.028 20.005 4 18.778 4h-3.445zM16 6c-.471 0-.707 0-.854.146C15 6.293 15 6.53 15 7v1c0 .471 0 .707.146.854C15.293 9 15.53 9 16 9h2c.471 0 .707 0 .854-.146C19 8.707 19 8.47 19 8V7c0-.471 0-.707-.146-.854C18.707 6 18.47 6 18 6h-2zM5.333 13C4.106 13 3 14.028 3 15.29v2.35C3 18.902 4.106 20 5.333 20h3.445C10.005 20 11 18.902 11 17.64v-2.35c0-1.262-.995-2.29-2.222-2.29H5.333zM6 15c-.471 0-.707 0-.854.146C5 15.293 5 15.53 5 16v1c0 .471 0 .707.146.854C5.293 18 5.53 18 6 18h2c.471 0 .707 0 .854-.146C9 17.707 9 17.47 9 17v-1c0-.471 0-.707-.146-.854C8.707 15 8.47 15 8 15H6zm11.5 6a4.5 4.5 0 100-9 4.5 4.5 0 000 9zm0-2a2.5 2.5 0 100-5 2.5 2.5 0 000 5z"/><path d="M16.5 15.5a1 1 0 112 0v.16c0 .05.04.09.09.09a.91.91 0 01.91.91v.09a1 1 0 01-1 1h-1a1 1 0 01-1-1V15.5z"/></symbol><symbol viewBox="0 0 30 30" id="icon-user" xmlns="http://www.w3.org/2000/svg"><path d="M15 15a5 5 0 100-10 5 5 0 000 10zm1.98 1.876h-3.96a6.77 6.77 0 00-6.77 6.77c0 .747.606 1.354 1.354 1.354h14.793a1.351 1.351 0 001.354-1.354 6.77 6.77 0 00-6.77-6.77z"/></symbol></svg>