<svg width="24" height="24" viewBox="0 0 24 24" fill="none" xmlns="http://www.w3.org/2000/svg">
  <path fill-rule="evenodd" clip-rule="evenodd"
    d="M3 5.5C3 4.56538 3 4.09808 3.20096 3.75C3.33261 3.52197 3.52197 3.33261 3.75 3.20096C4.09808 3 4.56538 3 5.5 3H8.5C9.43462 3 9.90192 3 10.25 3.20096C10.478 3.33261 10.6674 3.52197 10.799 3.75C11 4.09808 11 4.56538 11 5.5C11 6.43462 11 6.90192 10.799 7.25C10.6674 7.47803 10.478 7.66739 10.25 7.79904C9.90192 8 9.43462 8 8.5 8H5.5C4.56538 8 4.09808 8 3.75 7.79904C3.52197 7.66739 3.33261 7.47803 3.20096 7.25C3 6.90192 3 6.43462 3 5.5ZM9 5.4C9 5.21144 9 5.11716 8.94142 5.05858C8.88284 5 8.78856 5 8.6 5H5.4C5.21144 5 5.11716 5 5.05858 5.05858C5 5.11716 5 5.21144 5 5.4V5.6C5 5.78856 5 5.88284 5.05858 5.94142C5.11716 6 5.21144 6 5.4 6H8.6C8.78856 6 8.88284 6 8.94142 5.94142C9 5.88284 9 5.78856 9 5.6V5.4Z"
    fill="#0D0D0D" />
  <path fill-rule="evenodd" clip-rule="evenodd"
    d="M12 5.5C12 4.56538 12 4.09808 12.201 3.75C12.3326 3.52197 12.522 3.33261 12.75 3.20096C13.0981 3 13.5654 3 14.5 3H17.5C18.4346 3 18.9019 3 19.25 3.20096C19.478 3.33261 19.6674 3.52197 19.799 3.75C20 4.09808 20 4.56538 20 5.5C20 6.43462 20 6.90192 19.799 7.25C19.6674 7.47803 19.478 7.66739 19.25 7.79904C18.9019 8 18.4346 8 17.5 8H14.5C13.5654 8 13.0981 8 12.75 7.79904C12.522 7.66739 12.3326 7.47803 12.201 7.25C12 6.90192 12 6.43462 12 5.5ZM18 5.4C18 5.21144 18 5.11716 17.9414 5.05858C17.8828 5 17.7886 5 17.6 5H14.4C14.2114 5 14.1172 5 14.0586 5.05858C14 5.11716 14 5.21144 14 5.4V5.6C14 5.78856 14 5.88284 14.0586 5.94142C14.1172 6 14.2114 6 14.4 6H17.6C17.7886 6 17.8828 6 17.9414 5.94142C18 5.88284 18 5.78856 18 5.6V5.4Z"
    fill="#0D0D0D" />
  <path fill-rule="evenodd" clip-rule="evenodd"
    d="M3 11.5C3 10.5654 3 10.0981 3.20096 9.75C3.33261 9.52197 3.52197 9.33261 3.75 9.20096C4.09808 9 4.56538 9 5.5 9H8.5C9.43462 9 9.90192 9 10.25 9.20096C10.478 9.33261 10.6674 9.52197 10.799 9.75C11 10.0981 11 10.5654 11 11.5C11 12.4346 11 12.9019 10.799 13.25C10.6674 13.478 10.478 13.6674 10.25 13.799C9.90192 14 9.43462 14 8.5 14H5.5C4.56538 14 4.09808 14 3.75 13.799C3.52197 13.6674 3.33261 13.478 3.20096 13.25C3 12.9019 3 12.4346 3 11.5ZM9 11.4C9 11.2114 9 11.1172 8.94142 11.0586C8.88284 11 8.78856 11 8.6 11H5.4C5.21144 11 5.11716 11 5.05858 11.0586C5 11.1172 5 11.2114 5 11.4V11.6C5 11.7886 5 11.8828 5.05858 11.9414C5.11716 12 5.21144 12 5.4 12H8.6C8.78856 12 8.88284 12 8.94142 11.9414C9 11.8828 9 11.7886 9 11.6V11.4Z"
    fill="#0D0D0D" />
  <path fill-rule="evenodd" clip-rule="evenodd"
    d="M3 17.5C3 16.5654 3 16.0981 3.20096 15.75C3.33261 15.522 3.52197 15.3326 3.75 15.201C4.09808 15 4.56538 15 5.5 15H8.5C9.43462 15 9.90192 15 10.25 15.201C10.478 15.3326 10.6674 15.522 10.799 15.75C11 16.0981 11 16.5654 11 17.5C11 18.4346 11 18.9019 10.799 19.25C10.6674 19.478 10.478 19.6674 10.25 19.799C9.90192 20 9.43462 20 8.5 20H5.5C4.56538 20 4.09808 20 3.75 19.799C3.52197 19.6674 3.33261 19.478 3.20096 19.25C3 18.9019 3 18.4346 3 17.5ZM9 17.4C9 17.2114 9 17.1172 8.94142 17.0586C8.88284 17 8.78856 17 8.6 17H5.4C5.21144 17 5.11716 17 5.05858 17.0586C5 17.1172 5 17.2114 5 17.4V17.6C5 17.7886 5 17.8828 5.05858 17.9414C5.11716 18 5.21144 18 5.4 18H8.6C8.78856 18 8.88284 18 8.94142 17.9414C9 17.8828 9 17.7886 9 17.6V17.4Z"
    fill="#0D0D0D" />
  <path fill-rule="evenodd" clip-rule="evenodd"
    d="M12 11.5C12 10.5654 12 10.0981 12.201 9.75C12.3326 9.52197 12.522 9.33261 12.75 9.20096C13.0981 9 13.5654 9 14.5 9H17.5C18.4346 9 18.9019 9 19.25 9.20096C19.478 9.33261 19.6674 9.52197 19.799 9.75C20 10.0981 20 10.5654 20 11.5C20 12.4346 20 12.9019 19.799 13.25C19.6674 13.478 19.478 13.6674 19.25 13.799C18.9019 14 18.4346 14 17.5 14H14.5C13.5654 14 13.0981 14 12.75 13.799C12.522 13.6674 12.3326 13.478 12.201 13.25C12 12.9019 12 12.4346 12 11.5ZM18 11.4C18 11.2114 18 11.1172 17.9414 11.0586C17.8828 11 17.7886 11 17.6 11H14.4C14.2114 11 14.1172 11 14.0586 11.0586C14 11.1172 14 11.2114 14 11.4V11.6C14 11.7886 14 11.8828 14.0586 11.9414C14.1172 12 14.2114 12 14.4 12H17.6C17.7886 12 17.8828 12 17.9414 11.9414C18 11.8828 18 11.7886 18 11.6V11.4Z"
    fill="#0D0D0D" />
  <path fill-rule="evenodd" clip-rule="evenodd"
    d="M12 17.5C12 16.5654 12 16.0981 12.201 15.75C12.3326 15.522 12.522 15.3326 12.75 15.201C13.0981 15 13.5654 15 14.5 15H17.5C18.4346 15 18.9019 15 19.25 15.201C19.478 15.3326 19.6674 15.522 19.799 15.75C20 16.0981 20 16.5654 20 17.5C20 18.4346 20 18.9019 19.799 19.25C19.6674 19.478 19.478 19.6674 19.25 19.799C18.9019 20 18.4346 20 17.5 20H14.5C13.5654 20 13.0981 20 12.75 19.799C12.522 19.6674 12.3326 19.478 12.201 19.25C12 18.9019 12 18.4346 12 17.5ZM18 17.4C18 17.2114 18 17.1172 17.9414 17.0586C17.8828 17 17.7886 17 17.6 17H14.4C14.2114 17 14.1172 17 14.0586 17.0586C14 17.1172 14 17.2114 14 17.4V17.6C14 17.7886 14 17.8828 14.0586 17.9414C14.1172 18 14.2114 18 14.4 18H17.6C17.7886 18 17.8828 18 17.9414 17.9414C18 17.8828 18 17.7886 18 17.6V17.4Z"
    fill="#0D0D0D" />
</svg>
