<svg width="24" height="24" viewBox="0 0 24 24" fill="none" xmlns="http://www.w3.org/2000/svg">
  <path
    d="M12 10C12.5523 10 13 10.4477 13 11V17C13 17.5523 12.5523 18 12 18C11.4477 18 11 17.5523 11 17V11C11 10.4477 11.4477 10 12 10Z"
    fill="#0D0D0D" />
  <path fill-rule="evenodd" clip-rule="evenodd"
    d="M11.998 2C17.5208 1.99887 21.9989 6.47511 22 11.998C22.0011 17.5208 17.5249 21.9989 12.002 22C6.4792 22.0011 2.00113 17.5249 2 12.002C1.99887 6.4792 6.47511 2.00113 11.998 2ZM12 20C16.4183 20 20 16.4183 20 12C20 7.58172 16.4183 4 12 4C7.58172 4 4 7.58172 4 12C4 16.4183 7.58172 20 12 20Z"
    fill="#0D0D0D" />
  <circle cx="12" cy="7.75" r="1.25" fill="#0D0D0D" />
</svg>
