<svg width="24" height="24" viewBox="0 0 24 24" fill="none" xmlns="http://www.w3.org/2000/svg">
  <circle cx="4.25" cy="6" r="1.25" fill="currentColor" />
  <circle cx="4.25" cy="12" r="1.25" fill="currentColor" />
  <circle cx="4.25" cy="18" r="1.25" fill="currentColor" />
  <path
    d="M7 6C7 5.44772 7.44772 5 8 5H20C20.5523 5 21 5.44772 21 6C21 6.55228 20.5523 7 20 7H8C7.44772 7 7 6.55228 7 6Z"
    fill="currentColor" />
  <path
    d="M7 12C7 11.4477 7.44772 11 8 11H20C20.5523 11 21 11.4477 21 12C21 12.5523 20.5523 13 20 13H8C7.44772 13 7 12.5523 7 12Z"
    fill="currentColor" />
  <path
    d="M7 18C7 17.4477 7.44772 17 8 17H20C20.5523 17 21 17.4477 21 18C21 18.5523 20.5523 19 20 19H8C7.44772 19 7 18.5523 7 18Z"
    fill="currentColor" />
</svg>