<svg width="24" height="24" viewBox="0 0 24 24" fill="none" xmlns="http://www.w3.org/2000/svg">
  <path fill-rule="evenodd" clip-rule="evenodd"
    d="M3.06031 19.2327C2.76842 20.1854 3.57722 21 4.59908 21H19.4009C20.4228 21 21.2316 20.1854 20.9397 19.2327C20.2866 17.1009 18.2639 13.8 12 13.8C5.73607 13.8 3.71343 17.1009 3.06031 19.2327ZM18.7081 18.7486C18.7608 18.8718 18.6652 19 18.5312 19H5.46881C5.33483 19 5.2392 18.8718 5.29194 18.7486C5.75234 17.6736 7.38584 15.7999 12 15.7999C16.6142 15.7999 18.2477 17.6736 18.7081 18.7486Z"
    fill="currentColor" />
  <path fill-rule="evenodd" clip-rule="evenodd"
    d="M16.5 7.5C16.5 9.98528 14.4853 12 12 12C9.51472 12 7.5 9.98528 7.5 7.5C7.5 5.01472 9.51472 3 12 3C14.4853 3 16.5 5.01472 16.5 7.5ZM12 10C13.3807 10 14.5 8.88071 14.5 7.5C14.5 6.11929 13.3807 5 12 5C10.6193 5 9.5 6.11929 9.5 7.5C9.5 8.88071 10.6193 10 12 10Z"
    fill="currentColor" />
</svg>