<svg width="24" height="24" fill="none" xmlns="http://www.w3.org/2000/svg">
  <path
    d="M7 11.5a1 1 0 011-1h8a1 1 0 110 2H8a1 1 0 01-1-1zM7 14.5a1 1 0 011-1h8a1 1 0 110 2H8a1 1 0 01-1-1zM7 17.5a1 1 0 011-1h8a1 1 0 110 2H8a1 1 0 01-1-1z"
    fill="currentColor" />
  <path fill-rule="evenodd" clip-rule="evenodd"
    d="M20 16c0 2.828 0 4.243-.879 5.121C18.243 22 16.828 22 14 22h-4c-2.828 0-4.243 0-5.121-.879C4 20.243 4 18.828 4 16V8c0-2.828 0-4.243.879-5.121C5.757 2 7.172 2 10 2h4c.169 0 .253 0 .334.007a2 2 0 011.132.469c.062.052.122.112.241.231l3.586 3.586c.12.12.179.179.231.24a2 2 0 01.47 1.133C20 7.747 20 7.83 20 8v8zM13 4v1c0 1.886 0 2.828.586 3.414C14.172 9 15.114 9 17 9h1v7c0 1.886 0 2.828-.586 3.414C16.828 20 15.886 20 14 20h-4c-1.886 0-2.828 0-3.414-.586C6 18.828 6 17.886 6 16V8c0-1.886 0-2.828.586-3.414C7.172 4 8.114 4 10 4h3zm2 1c0 .943 0 1.414.293 1.707C15.586 7 16.057 7 17 7h.2L15 4.8V5z"
    fill="currentColor" />
</svg>