<svg width="24" height="24" viewBox="0 0 24 24" fill="none" xmlns="http://www.w3.org/2000/svg">
  <path fill-rule="evenodd" clip-rule="evenodd"
    d="M2 14C2 9.28595 2 6.92893 3.46447 5.46447C4.92893 4 7.28595 4 12 4H15C16.8613 4 17.7919 4 18.5451 4.24472C20.0673 4.73931 21.2607 5.93273 21.7553 7.45492C22 8.20808 22 9.13872 22 11C22 12.8613 22 13.7919 21.7553 14.5451C21.2607 16.0673 20.0673 17.2607 18.5451 17.7553C17.7919 18 16.8613 18 15 18H9.34886C8.92599 18 8.71455 18 8.50925 18.0436C8.30394 18.0871 8.11073 18.173 7.7243 18.3448L4.4413 19.8039C4.15034 19.9332 3.83548 20 3.51708 20C2.67922 20 2 19.3208 2 18.4829V14ZM15 6C16.3027 6 16.9541 6 17.4825 6.16662C18.6027 6.51981 19.4802 7.39727 19.8334 8.51746C20 9.04591 20 9.69727 20 11C20 12.3027 20 12.9541 19.8334 13.4825C19.4802 14.6027 18.6027 15.4802 17.4825 15.8334C16.9541 16 16.3027 16 15 16H9.62709C8.96618 16 8.63573 16 8.31566 16.0708C7.99558 16.1416 7.69596 16.281 7.0967 16.5597L4.56869 17.7355C4.31284 17.8545 4.18492 17.914 4.09246 17.855C4 17.7961 4 17.655 4 17.3728V13.2C4 9.80589 4 8.10883 5.05442 7.05442C6.10883 6 7.80589 6 11.2 6H15Z"
    fill="currentColor" />
  <path
    d="M11.0001 8.5C11.0001 7.94772 11.4478 7.5 12.0001 7.5C12.5523 7.5 13 7.94771 13 8.49999L13.0001 13.5C13.0001 14.0523 12.5524 14.5 12.0001 14.5C11.4478 14.5 11.0001 14.0523 11.0001 13.5L11.0001 8.5Z"
    fill="currentColor" />
  <path
    d="M9.50001 11.9996C8.94773 11.9996 8.50001 11.5519 8.50001 10.9996C8.50001 10.4474 8.94772 9.99964 9.5 9.99964L14.5 9.99961C15.0523 9.99961 15.5 10.4473 15.5 10.9996C15.5 11.5519 15.0523 11.9996 14.5 11.9996L9.50001 11.9996Z"
    fill="currentColor" />
</svg>