<svg width="24" height="24" viewBox="0 0 24 24" fill="none" xmlns="http://www.w3.org/2000/svg">
  <path fill-rule="evenodd" clip-rule="evenodd"
    d="M3 11.9999V14.9999C3 17.8284 3 19.2426 3.87868 20.1213C4.75736 21 6.17157 21 9 21H15C17.8284 21 19.2426 21 20.1213 20.1213C21 19.2426 21 17.8284 21 14.9999V11.9999C21 9.17152 21 7.75731 20.1213 6.87863C19.2426 5.99995 18.3284 5.99995 15.5 5.99995C15.5 5.07125 15.5 4.6069 15.3489 4.24056C15.1454 3.74728 14.7533 3.35575 14.2597 3.15307C13.8931 3.00255 13.4288 3.00328 12.5001 3.00476L11.4842 3.00637C10.5627 3.00783 10.102 3.00856 9.73819 3.15807C9.24205 3.36199 8.84861 3.75665 8.64625 4.25343C8.49812 4.61707 8.49858 5.07688 8.49999 5.99528L8.5 5.99995C5.67157 5.99995 4.75736 5.99995 3.87868 6.87863C3 7.75731 3 9.17152 3 11.9999ZM13.5 5.99995H10.5C10.5 5.52855 10.5 5.29284 10.6464 5.1464C10.7929 4.99995 11.0286 4.99995 11.5 4.99995H12.5C12.9714 4.99995 13.2071 4.99995 13.3536 5.1464C13.5 5.29284 13.5 5.52855 13.5 5.99995ZM19 9.48532C19 9.03311 19 8.807 18.9282 8.62791C18.8266 8.37433 18.6256 8.17337 18.372 8.07173C18.1929 7.99995 17.9668 7.99995 17.5146 7.99995H6.48537C6.03316 7.99995 5.80705 7.99995 5.62796 8.07173C5.37438 8.17337 5.17342 8.37433 5.07178 8.62791C5 8.807 5 9.03311 5 9.48532C5 9.64682 5 9.72757 5.02147 9.79846C5.05186 9.89877 5.113 9.98699 5.19625 10.0507C5.25508 10.0957 5.33069 10.124 5.48191 10.1807L7.30211 10.8633C8.14877 11.1808 8.57209 11.3395 9.01455 11.4198C9.457 11.5 9.90912 11.5 10.8133 11.5H13.1867C14.0909 11.5 14.543 11.5 14.9855 11.4198C15.4279 11.3395 15.8512 11.1808 16.6979 10.8633L18.5181 10.1807C18.6693 10.124 18.7449 10.0957 18.8038 10.0507C18.887 9.98699 18.9481 9.89877 18.9785 9.79846C19 9.72757 19 9.64682 19 9.48532ZM19 17C19 17.9428 19 18.4142 18.7071 18.7071C18.4142 19 17.9428 19 17 19H7C6.05719 19 5.58579 19 5.29289 18.7071C5 18.4142 5 17.9428 5 17V12.2886C5 12.1575 5 12.0919 5.04304 12.0621C5.08608 12.0323 5.14746 12.0553 5.27022 12.1013L6.19101 12.4466C7.29855 12.862 7.85232 13.0696 8.42291 13.2101C8.82436 13.3089 9.23155 13.3828 9.64214 13.4312C10.2257 13.5 10.8171 13.5 12 13.5C13.1829 13.5 13.7743 13.5 14.3579 13.4312C14.7684 13.3828 15.1756 13.3089 15.5771 13.2101C16.1477 13.0696 16.7014 12.862 17.809 12.4466L18.7298 12.1013C18.8525 12.0553 18.9139 12.0323 18.957 12.0621C19 12.0919 19 12.1575 19 12.2886V17Z"
    fill="currentColor" />
</svg>