<svg width="24" height="24" viewBox="0 0 24 24" fill="none" xmlns="http://www.w3.org/2000/svg">
  <path fill-rule="evenodd" clip-rule="evenodd"
    d="M14.0001 13C17.0001 13 19 11.5 19 8C19 4.5 16.0001 3 12.0002 3H9.49993C8.55712 3 8.08572 3 7.79282 3.29289C7.49993 3.58579 7.49993 4.05719 7.49993 5V11H6.00011C5.44782 11 5.00011 11.4477 5.00011 12V12C5.00011 12.5523 5.44782 13 6.00011 13H7.49993V14H6C5.44772 14 5 14.4477 5 15V15C5 15.5523 5.44772 16 6 16H7.49993V20C7.49993 20.5523 7.94763 21 8.4999 21V21C9.05217 21 9.49987 20.5523 9.49987 20V16H14.0006C14.5529 16 15.0006 15.5523 15.0006 15V15C15.0006 14.4477 14.5529 14 14.0006 14H9.49987V13H14.0001ZM17.0001 8C16.9997 10.5 15.5001 11 14.0001 11H9.49987C9.49987 10.2932 9.49987 7.51524 9.49987 5.99964C9.49987 5.52847 9.49987 5.29289 9.64632 5.14645C9.79277 5 10.0284 5 10.4998 5C11.0967 5 11.7802 5 12.0002 5C15.0001 5 17.0005 5.5 17.0001 8Z"
    fill="currentColor" />
</svg>