<svg width="24" height="24" viewBox="0 0 24 24" fill="none" xmlns="http://www.w3.org/2000/svg">
  <path fill-rule="evenodd" clip-rule="evenodd"
    d="M11.998 2C17.5208 1.99887 21.9989 6.47511 22 11.998C22.0011 17.5208 17.5249 21.9989 12.002 22C6.4792 22.0011 2.00113 17.5249 2 12.002C1.99887 6.4792 6.47511 2.00113 11.998 2ZM12 20C16.4183 20 20 16.4183 20 12C20 7.58172 16.4183 4 12 4C7.58172 4 4 7.58172 4 12C4 16.4183 7.58172 20 12 20Z"
    fill="currentColor" />
  <rect x="8.11133" y="6.69678" width="13" height="2" rx="1" transform="rotate(45 8.11133 6.69678)"
    fill="currentColor" />
  <rect x="6.69629" y="15.8892" width="13" height="2" rx="1" transform="rotate(-45 6.69629 15.8892)"
    fill="currentColor" />
</svg>