<svg width="24" height="24" fill="none" xmlns="http://www.w3.org/2000/svg">
  <path
    d="M10.922 15.998c0-.47 0-.705.146-.852.147-.146.383-.146.854-.146.472 0 .708 0 .854.146.147.147.147.383.147.854v3h2v-3c0-.932 0-1.398-.152-1.765a2 2 0 00-1.083-1.083C13.321 13 12.855 13 11.923 13c-.932 0-1.398 0-1.765.152a2 2 0 00-1.083 1.083c-.152.367-.152.833-.152 1.765v3h2c0-1-.002-2.001-.001-3.002zM3.004 20a1 1 0 001 1h15.92a1 1 0 100-2H4.002a1 1 0 00-1 1z"
    fill="currentColor" />
  <path fill-rule="evenodd" clip-rule="evenodd"
    d="M18.923 19h-2V8.667c-.86.573-1.29.86-1.769.916a2 2 0 01-.463 0c-.477-.056-.908-.343-1.768-.916-.43-.287-.646-.43-.884-.458a1 1 0 00-.232 0c-.239.027-.454.17-.884.458-.86.573-1.29.86-1.769.916a2 2 0 01-.462 0c-.478-.056-.909-.343-1.77-.916V19h-2V8.824c-.356.283-.584.434-.74.464a1 1 0 01-1.178-.837c-.037-.256.165-.792.568-1.863.36-.957.54-1.436.802-1.824a4 4 0 012.393-1.656C7.223 3 7.734 3 8.757 3h6.332c1.023 0 1.534 0 1.99.108a4 4 0 012.393 1.656c.261.389.441.867.802 1.824.403 1.071.605 1.607.567 1.862a1 1 0 01-1.178.838c-.156-.03-.383-.18-.74-.464V19zM14.27 5H8.15c-.444 0-.666 0-.869.043a2 2 0 00-1.11.66c-.136.157-.242.352-.454.742a2 2 0 01.788.06c.304.085.59.276 1.164.658l.278.186c.408.272.612.407.837.44a1 1 0 00.28 0c.225-.033.432-.17.845-.445.87-.58 1.306-.871 1.784-.927a2 2 0 01.462 0c.478.056.914.346 1.784.927.413.275.62.412.845.444a1 1 0 00.28 0c.225-.032.43-.167.837-.44l.278-.185c.573-.382.86-.573 1.164-.658a2 2 0 01.788-.06c-.213-.39-.32-.585-.454-.743a2 2 0 00-1.11-.66C16.362 5 16.14 5 15.696 5H14.27z"
    fill="currentColor" />
</svg>