<svg width="24" height="24" fill="none" xmlns="http://www.w3.org/2000/svg">
  <path
    d="M7.375 6.4a1.1 1.1 0 011.1-1.1h9.05a1.1 1.1 0 010 2.2h-9.05a1.1 1.1 0 01-1.1-1.1zM9.625 9.7a1.1 1.1 0 011.1-1.1h6.8a1.1 1.1 0 010 2.2h-6.8a1.1 1.1 0 01-1.1-1.1zM7.375 13a1.1 1.1 0 011.1-1.1h9.012a1.1 1.1 0 010 2.2H8.475a1.1 1.1 0 01-1.1-1.1zM9.625 16.3a1.1 1.1 0 011.1-1.1h6.762a1.1 1.1 0 010 2.2h-6.762a1.1 1.1 0 01-1.1-1.1z"
    fill="currentColor" />
  <path fill-rule="evenodd" clip-rule="evenodd"
    d="M4.659 2.644C4 3.29 4 4.326 4 6.4v16.867c0 .405.336.733.75.733a.756.756 0 00.6-.293l1.125-1.467c.212-.277.546-.44.9-.44s.688.163.9.44l1.012 1.32c.213.277.546.44.9.44.355 0 .688-.163.9-.44l1.013-1.32c.213-.277.546-.44.9-.44s.688.163.9.44l1.012 1.32c.213.277.546.44.9.44.355 0 .688-.163.9-.44l1.013-1.32c.212-.277.546-.44.9-.44s.688.163.9.44l1.125 1.467a.756.756 0 00.6.293c.414 0 .75-.328.75-.733V6.4c0-2.074 0-3.111-.659-3.756C20.682 2 19.621 2 17.5 2h-9c-2.121 0-3.182 0-3.841.644zM8.25 4.228c-.943 0-1.414 0-1.707.293-.293.293-.293.764-.293 1.707V19.57c0 .154 0 .231.044.261.045.03.122-.002.275-.065.264-.109.55-.167.844-.167a2.19 2.19 0 011.74.85l.36.47c.203.265.304.397.423.455a.574.574 0 00.503 0c.119-.058.22-.19.424-.455l.337-.44a2.267 2.267 0 011.8-.88c.708 0 1.375.326 1.8.88l.337.44c.204.265.305.397.424.455a.574.574 0 00.503 0c.119-.058.22-.19.424-.455l.36-.47a2.19 2.19 0 011.739-.85c.294 0 .58.058.844.167.153.063.23.095.275.065.044-.03.044-.107.044-.261V6.228c0-.943 0-1.414-.293-1.707-.293-.293-.764-.293-1.707-.293h-9.5zM7.375 6.4a1.1 1.1 0 011.1-1.1h9.05a1.1 1.1 0 010 2.2h-9.05a1.1 1.1 0 01-1.1-1.1zm2.25 3.3a1.1 1.1 0 011.1-1.1h6.8a1.1 1.1 0 010 2.2h-6.8a1.1 1.1 0 01-1.1-1.1zM7.375 13a1.1 1.1 0 011.1-1.1h9.012a1.1 1.1 0 010 2.2H8.475a1.1 1.1 0 01-1.1-1.1zm2.25 3.3a1.1 1.1 0 011.1-1.1h6.762a1.1 1.1 0 010 2.2h-6.762a1.1 1.1 0 01-1.1-1.1z"
    fill="currentColor" />
</svg>