<svg width="22" height="22" fill="none" xmlns="http://www.w3.org/2000/svg">
  <path fill-rule="evenodd" clip-rule="evenodd"
    d="M4.068 18.21l1.722 1.722a.833.833 0 00.962.156l1.798-.9a.578.578 0 01.806.335l.636 1.907c.113.34.432.57.79.57h2.435c.36 0 .678-.23.791-.57l.636-1.907a.577.577 0 01.806-.334l1.798.9c.321.16.708.097.962-.157l1.722-1.722a.833.833 0 00.156-.962l-.9-1.798a.577.577 0 01.335-.806l1.907-.636a.833.833 0 00.57-.79v-2.435a.833.833 0 00-.57-.791l-1.907-.636a.577.577 0 01-.334-.806l.9-1.798a.833.833 0 00-.157-.962L18.21 4.068a.833.833 0 00-.962-.156l-1.798.9a.577.577 0 01-.806-.335l-.636-1.907a.833.833 0 00-.79-.57h-2.436a.833.833 0 00-.79.57l-.636 1.907a.577.577 0 01-.806.334l-1.798-.9a.833.833 0 00-.962.157L4.068 5.79a.833.833 0 00-.156.962l.9 1.798a.577.577 0 01-.335.806l-1.907.636a.833.833 0 00-.57.79v2.435c0 .36.23.678.57.791l1.907.636a.578.578 0 01.334.806l-.9 1.798a.833.833 0 00.157.962zm2.61-4.006c-.368-.89-1.76-1.42-2.38-1.617-.147-.047-.22-.07-.26-.123C4 12.41 4 12.335 4 12.187v-.373c0-.15 0-.225.039-.278.039-.053.113-.076.262-.123.613-.192 1.979-.711 2.377-1.617.389-.883-.231-2.247-.536-2.825-.072-.139-.109-.208-.099-.273.01-.065.063-.118.17-.224l.267-.268c.104-.103.155-.155.22-.165.063-.01.13.023.267.091.576.288 1.946.884 2.829.546.861-.33 1.412-1.758 1.615-2.383.048-.146.071-.219.124-.257C11.587 4 11.66 4 11.808 4h.386c.146 0 .22 0 .272.038.052.037.076.11.125.253.205.613.757 2.01 1.626 2.393.84.37 2.231-.25 2.815-.548.137-.07.205-.105.269-.095.064.01.116.063.22.167l.27.27c.105.104.157.157.168.22.01.065-.025.133-.095.27-.295.58-.904 1.955-.543 2.828.362.873 1.765 1.414 2.383 1.615.146.047.22.071.258.124.038.052.038.126.038.274v.381c0 .148 0 .222-.038.274-.038.053-.111.077-.257.124-.619.201-2.022.743-2.383 1.616-.362.873.247 2.248.542 2.828.07.137.105.205.095.27-.01.063-.063.116-.167.22l-.27.27c-.104.104-.157.156-.22.167-.065.01-.133-.025-.27-.095-.58-.295-1.955-.904-2.828-.543-.873.362-1.415 1.765-1.615 2.384-.048.146-.072.219-.124.257-.053.038-.127.038-.274.038h-.382c-.148 0-.221 0-.274-.038-.053-.038-.076-.111-.124-.257-.202-.62-.749-2.03-1.628-2.389-.871-.355-2.237.252-2.815.547-.136.07-.205.105-.27.095-.063-.01-.116-.062-.22-.167l-.267-.267c-.106-.105-.159-.158-.169-.223-.01-.064.026-.133.097-.27.299-.577.908-1.936.54-2.826z"
    fill="currentColor" />
  <path fill-rule="evenodd" clip-rule="evenodd"
    d="M9.172 14.828c1.767 1.768 4.236 1.42 5.656 0s1.768-3.889 0-5.656c-1.767-1.768-4.236-1.42-5.656 0s-1.768 3.889 0 5.656zM12 14a2 2 0 100-4 2 2 0 000 4z"
    fill="currentColor" />
</svg>