<svg width="24" height="24" viewBox="0 0 24 24" fill="none" xmlns="http://www.w3.org/2000/svg">
  <path
    d="M11 10C11 9.44772 11.4477 9 12 9C12.5523 9 13 9.44772 13 10V15C13 15.5522 12.5523 16 12 16C11.4477 15.9999 11 15.5522 11 15V10Z"
    fill="#0D0D0D" />
  <path
    d="M9.5 13.5C8.94772 13.5 8.5 13.0523 8.5 12.5C8.5 11.9477 8.94772 11.5 9.5 11.5H14.5C15.0522 11.5 15.5 11.9477 15.5 12.5C15.4999 13.0523 15.0522 13.5 14.5 13.5H9.5Z"
    fill="#0D0D0D" />
  <path fill-rule="evenodd" clip-rule="evenodd"
    d="M20 16C20 18.8284 20 20.2426 19.1213 21.1213C18.2426 22 16.8284 22 14 22H10C7.17157 22 5.75736 22 4.87868 21.1213C4 20.2426 4 18.8284 4 16V8C4 5.17157 4 3.75736 4.87868 2.87868C5.75736 2 7.17157 2 10 2H14C14.1686 2 14.2529 2 14.3341 2.00661C14.7512 2.04061 15.1472 2.20464 15.4662 2.47557C15.5282 2.52825 15.5879 2.58787 15.7071 2.70711L19.2929 6.29289C19.4121 6.41213 19.4718 6.47175 19.5244 6.53378C19.7954 6.8528 19.9594 7.24878 19.9934 7.66595C20 7.74705 20 7.83137 20 8V16ZM13 4V5C13 6.88562 13 7.82843 13.5858 8.41421C14.1716 9 15.1144 9 17 9H18V16C18 17.8856 18 18.8284 17.4142 19.4142C16.8284 20 15.8856 20 14 20H10C8.11438 20 7.17157 20 6.58579 19.4142C6 18.8284 6 17.8856 6 16V8C6 6.11438 6 5.17157 6.58579 4.58579C7.17157 4 8.11438 4 10 4H13ZM15 5C15 5.94281 15 6.41421 15.2929 6.70711C15.5858 7 16.0572 7 17 7H17.2L15 4.8V5Z"
    fill="#0D0D0D" />
</svg>
