<svg width="24" height="24" viewBox="0 0 24 24" fill="none" xmlns="http://www.w3.org/2000/svg">
  <path fill-rule="evenodd" clip-rule="evenodd"
    d="M5.33333 4C4.10603 4 3 5.02763 3 6.29V8.64C3 9.90237 4.10603 11 5.33333 11H8.77778C10.0051 11 11 9.90237 11 8.64V6.29C11 5.02763 10.0051 4 8.77778 4H5.33333ZM6 6C5.5286 6 5.29289 6 5.14645 6.14645C5 6.29289 5 6.5286 5 7V8C5 8.4714 5 8.70711 5.14645 8.85355C5.29289 9 5.5286 9 6 9H8C8.4714 9 8.70711 9 8.85355 8.85355C9 8.70711 9 8.4714 9 8V7C9 6.5286 9 6.29289 8.85355 6.14645C8.70711 6 8.4714 6 8 6H6Z"
    fill="currentColor" />
  <path fill-rule="evenodd" clip-rule="evenodd"
    d="M15.3333 4C14.106 4 13 5.02763 13 6.29V8.64C13 9.90237 14.106 11 15.3333 11H18.7778C20.0051 11 21 9.90237 21 8.64V6.29C21 5.02763 20.0051 4 18.7778 4H15.3333ZM16 6C15.5286 6 15.2929 6 15.1464 6.14645C15 6.29289 15 6.5286 15 7V8C15 8.4714 15 8.70711 15.1464 8.85355C15.2929 9 15.5286 9 16 9H18C18.4714 9 18.7071 9 18.8536 8.85355C19 8.70711 19 8.4714 19 8V7C19 6.5286 19 6.29289 18.8536 6.14645C18.7071 6 18.4714 6 18 6H16Z"
    fill="currentColor" />
  <path fill-rule="evenodd" clip-rule="evenodd"
    d="M5.33333 13C4.10603 13 3 14.0276 3 15.29V17.64C3 18.9024 4.10603 20 5.33333 20H8.77778C10.0051 20 11 18.9024 11 17.64V15.29C11 14.0276 10.0051 13 8.77778 13H5.33333ZM6 15C5.5286 15 5.29289 15 5.14645 15.1464C5 15.2929 5 15.5286 5 16V17C5 17.4714 5 17.7071 5.14645 17.8536C5.29289 18 5.5286 18 6 18H8C8.4714 18 8.70711 18 8.85355 17.8536C9 17.7071 9 17.4714 9 17V16C9 15.5286 9 15.2929 8.85355 15.1464C8.70711 15 8.4714 15 8 15H6Z"
    fill="currentColor" />
  <path fill-rule="evenodd" clip-rule="evenodd"
    d="M17.5 21C19.9853 21 22 18.9853 22 16.5C22 14.0147 19.9853 12 17.5 12C15.0147 12 13 14.0147 13 16.5C13 18.9853 15.0147 21 17.5 21ZM17.5 19C18.8807 19 20 17.8807 20 16.5C20 15.1193 18.8807 14 17.5 14C16.1193 14 15 15.1193 15 16.5C15 17.8807 16.1193 19 17.5 19Z"
    fill="currentColor" />
  <path
    d="M16.5 15.5C16.5 14.9477 16.9477 14.5 17.5 14.5C18.0523 14.5 18.5 14.9477 18.5 15.5V15.6591C18.5 15.7093 18.5407 15.75 18.5909 15.75C19.093 15.75 19.5 16.157 19.5 16.6591V16.75C19.5 17.3023 19.0523 17.75 18.5 17.75H17.5C16.9477 17.75 16.5 17.3023 16.5 16.75V15.5Z"
    fill="currentColor" />
</svg>